<?xml version="1.0" standalone="no"?>
<!DOCTYPE svg PUBLIC "-//W3C//DTD SVG 20010904//EN"
 "http://www.w3.org/TR/2001/REC-SVG-20010904/DTD/svg10.dtd">
<svg version="1.0" xmlns="http://www.w3.org/2000/svg"
 width="500.000000pt" height="752.000000pt" viewBox="0 0 500.000000 752.000000"
 preserveAspectRatio="xMidYMid meet">

<g transform="translate(0.000000,752.000000) scale(0.100000,-0.100000)"
fill="#000000" stroke="none">
<path d="M3531 7463 c-7 -32 -16 -71 -21 -87 -6 -18 -6 -34 0 -41 5 -6 5 -16
0 -25 -6 -8 -10 -34 -10 -58 0 -23 -6 -57 -13 -75 -7 -18 -14 -50 -16 -72 -1
-22 -9 -51 -18 -63 -13 -21 -13 -26 1 -41 21 -23 20 -34 -4 -48 -29 -19 -62
-2 -119 59 -36 39 -62 57 -97 67 -26 8 -56 25 -67 38 -25 28 -97 34 -97 8 0
-12 -8 -14 -38 -9 -38 6 -39 5 -55 -32 -17 -43 -50 -78 -84 -88 -37 -12 -34
10 8 58 22 25 35 46 27 46 -21 -1 -67 -46 -74 -75 -4 -15 -17 -30 -29 -35 -13
-5 -25 -15 -27 -22 -4 -10 -10 -9 -25 5 -32 28 -60 18 -31 -11 10 -10 6 -18
-16 -37 -35 -30 -30 -29 -75 -6 -43 23 -111 53 -168 77 -37 14 -54 15 -125 6
-46 -6 -103 -8 -129 -5 -28 3 -70 -2 -110 -12 -35 -10 -75 -18 -89 -17 -14 0
-32 -6 -40 -13 -8 -7 -28 -17 -45 -21 -16 -4 -35 -12 -41 -18 -7 -6 -38 -29
-71 -51 -32 -22 -95 -77 -140 -123 -63 -63 -83 -89 -83 -110 0 -15 -6 -36 -14
-47 -19 -28 -28 -76 -33 -187 -3 -58 0 -105 6 -117 7 -12 8 -28 2 -43 -6 -16
-5 -27 5 -35 10 -10 10 -18 -2 -43 -9 -16 -21 -30 -29 -30 -8 0 -16 -19 -20
-52 -4 -28 -13 -66 -21 -84 -7 -18 -16 -49 -18 -69 -3 -20 -12 -45 -21 -55
-13 -14 -13 -19 -3 -22 15 -6 -33 -54 -98 -99 -39 -26 -134 -145 -134 -167 0
-6 -7 -13 -16 -16 -13 -5 -15 -15 -11 -42 5 -28 3 -35 -8 -30 -10 3 -14 -1
-13 -12 3 -39 -3 -73 -11 -67 -6 3 -13 -1 -18 -9 -4 -8 -12 -15 -18 -15 -5 -1
-10 -8 -10 -17 0 -8 -6 -19 -14 -23 -7 -5 -10 -14 -7 -20 4 -6 2 -11 -3 -11
-6 0 -11 -6 -11 -13 0 -8 -9 -22 -21 -33 -12 -10 -30 -37 -41 -59 -31 -60
-108 -175 -119 -175 -5 0 -9 -9 -9 -20 0 -11 -4 -20 -9 -20 -10 0 -127 233
-137 273 -3 15 -10 30 -15 33 -5 3 -9 24 -9 47 0 23 -5 49 -10 57 -18 28 1
-113 22 -165 28 -68 90 -194 118 -240 22 -36 23 -40 11 -124 -7 -47 -17 -108
-23 -135 -13 -58 -17 -308 -7 -348 4 -16 4 -28 -1 -28 -4 0 -10 -9 -13 -20 -3
-11 -12 -20 -21 -20 -10 0 -13 6 -10 15 4 8 11 15 17 15 6 0 8 3 5 6 -9 8 -48
-19 -48 -33 0 -6 6 -13 13 -16 6 -2 0 -2 -15 0 -21 4 -27 1 -23 -10 3 -7 0
-19 -7 -25 -11 -9 -13 -4 -10 26 3 30 2 35 -9 25 -7 -7 -19 -13 -27 -13 -8 0
-21 -8 -29 -17 -13 -17 -13 -17 -11 2 3 17 -2 19 -27 17 -16 -2 -36 -7 -44
-12 -17 -9 -53 -1 -45 11 3 5 -14 6 -38 3 -40 -5 -46 -3 -86 37 -39 39 -42 41
-33 15 17 -44 13 -51 -15 -26 -18 18 -27 21 -33 12 -5 -9 -12 -9 -27 3 -25 19
-34 19 -34 0 0 -18 -5 -19 -32 -4 -12 6 -70 13 -130 15 l-108 4 0 -2190 0
-2190 1381 0 c1378 0 1382 0 1364 20 -10 11 -13 20 -7 20 7 0 17 -9 24 -20 7
-11 23 -20 36 -20 20 0 22 4 16 23 l-6 22 24 -22 c33 -31 58 -30 58 2 0 31 7
31 32 0 12 -15 30 -25 45 -25 24 0 25 2 20 39 l-5 39 35 -39 c27 -30 43 -39
67 -39 29 0 32 3 31 27 -1 16 0 20 2 10 2 -9 9 -15 14 -12 5 4 9 0 9 -7 0 -19
110 -24 122 -6 8 10 11 10 15 1 4 -10 186 -13 864 -13 l859 0 0 3760 0 3760
-500 0 -500 0 0 -80 0 -80 79 0 79 0 7 -80 c7 -79 7 -80 35 -80 28 0 28 1 35
80 6 69 10 80 26 80 15 0 19 -7 19 -40 0 -33 -3 -40 -20 -40 -18 0 -20 -7 -20
-55 l0 -55 -40 0 c-22 0 -40 -4 -40 -10 0 -5 -18 -10 -40 -10 -38 0 -40 -1
-41 -32 -1 -18 -3 -25 -6 -15 -3 11 -14 17 -34 17 -21 0 -29 -5 -30 -17 -1
-34 -18 19 -18 60 -1 26 -5 37 -16 37 -22 0 -55 37 -55 60 0 11 5 20 10 20 6
0 10 18 10 40 0 29 4 40 15 40 11 0 15 11 15 40 0 22 5 40 10 40 6 0 10 18 10
40 l0 40 -223 0 -224 0 -12 -57z m709 -12 c0 -22 6 -30 25 -35 14 -4 25 -11
25 -16 0 -5 -11 -12 -25 -16 -14 -3 -25 -10 -25 -15 0 -5 -18 -9 -40 -9 l-40
0 0 60 0 60 40 0 c37 0 40 -2 40 -29z m-320 -276 c0 -42 -3 -55 -15 -55 -11 0
-15 11 -15 40 0 36 -2 40 -25 40 -16 0 -25 6 -25 15 0 11 11 15 40 15 l40 0 0
-55z m393 -62 c-7 -2 -19 -2 -25 0 -7 3 -2 5 12 5 14 0 19 -2 13 -5z m-1293
-23 c0 -5 -5 -10 -11 -10 -5 0 -7 5 -4 10 3 6 8 10 11 10 2 0 4 -4 4 -10z
m103 -16 c-1 -10 4 -22 10 -26 9 -6 9 -8 -1 -8 -7 0 -23 9 -35 20 -18 18 -20
22 -7 30 21 13 35 6 33 -16z m152 -44 c3 -5 -1 -10 -9 -10 -8 0 -18 5 -21 10
-3 6 1 10 9 10 8 0 18 -4 21 -10z m525 -300 c0 -5 -4 -10 -10 -10 -5 0 -10 5
-10 10 0 6 5 10 10 10 6 0 10 -4 10 -10z m333 -1467 c-7 -2 -21 -2 -30 0 -10
3 -4 5 12 5 17 0 24 -2 18 -5z m-2238 -13 c3 -5 1 -10 -4 -10 -6 0 -11 5 -11
10 0 6 2 10 4 10 3 0 8 -4 11 -10z m2255 -64 c0 -3 -4 -8 -10 -11 -5 -3 -10
-1 -10 4 0 6 5 11 10 11 6 0 10 -2 10 -4z m200 -10 c0 -3 -4 -8 -10 -11 -5 -3
-10 -1 -10 4 0 6 5 11 10 11 6 0 10 -2 10 -4z m30 -21 c-13 -14 -26 -23 -28
-20 -7 7 29 45 41 45 6 0 0 -11 -13 -25z m-2520 -10 c5 3 14 -4 20 -15 12 -23
32 -27 24 -5 -4 8 -2 15 4 15 5 0 13 -10 16 -22 l7 -23 9 23 c5 12 12 22 15
22 4 0 5 -10 4 -22 -3 -33 11 -64 22 -47 6 10 11 5 18 -15 6 -15 9 -31 6 -36
-6 -10 14 -25 21 -17 3 3 1 15 -6 26 -13 25 -2 28 16 4 12 -16 15 -16 23 -3
12 17 17 13 39 -32 12 -23 23 -32 38 -31 13 1 26 -6 33 -20 11 -21 11 -21 8 5
-3 20 0 25 11 21 11 -5 13 -1 7 15 -10 34 9 26 29 -13 11 -19 22 -33 24 -30 3
3 0 11 -6 17 -7 7 -12 19 -12 27 0 11 9 6 25 -14 14 -16 22 -22 19 -12 -12 33
32 12 55 -28 11 -19 11 -18 5 4 -4 14 -2 21 4 17 5 -3 10 0 9 7 0 6 1 21 1 31
2 18 3 18 22 1 11 -10 20 -13 20 -7 0 22 16 12 28 -15 l12 -28 -5 28 c-4 19
-1 27 9 27 8 0 18 -5 22 -11 11 -19 24 13 18 46 -4 23 -3 26 5 15 6 -8 11 -23
11 -32 0 -10 7 -18 15 -18 8 0 15 -9 15 -20 0 -20 19 -23 33 -5 4 6 11 4 17
-5 7 -12 10 -8 10 15 1 29 1 30 13 7 10 -17 15 -20 25 -10 9 9 12 8 12 -5 0
-9 5 -17 10 -17 6 0 10 6 10 13 0 7 3 8 8 2 14 -20 32 -15 32 10 0 14 5 25 10
25 6 0 10 -4 10 -8 0 -4 8 -8 18 -9 12 -1 22 9 30 29 10 26 14 29 27 18 13
-10 15 -9 15 6 0 16 2 17 10 4 8 -12 10 -10 10 10 0 14 5 32 11 40 8 12 9 10
4 -7 -3 -12 -1 -24 5 -28 5 -3 10 2 11 12 0 16 1 16 9 -2 7 -16 9 -14 10 15
l1 35 14 -38 c14 -42 32 -66 21 -29 -9 26 8 30 23 5 6 -10 11 -13 11 -6 0 6 7
19 16 27 14 15 17 15 32 0 13 -14 17 -14 21 -3 7 25 25 28 39 8 17 -24 32 -24
32 0 0 11 3 28 7 38 5 13 11 3 19 -37 9 -44 12 -49 13 -22 0 17 3 32 6 32 12
0 45 -36 45 -50 1 -9 6 -5 15 10 l14 25 1 -28 c0 -16 -5 -38 -11 -49 -8 -14
-8 -23 0 -31 8 -8 11 -4 11 15 0 15 5 30 10 33 6 3 10 16 10 29 0 12 6 31 14
42 14 18 15 18 25 -6 7 -19 10 -20 10 -7 1 11 6 15 12 11 6 -3 9 -17 6 -31 -3
-19 -1 -23 12 -18 13 5 14 4 4 -6 -18 -18 -16 -34 2 -19 8 7 15 11 16 9 5 -28
3 -92 -3 -95 -4 -3 -8 1 -8 9 0 8 -10 17 -22 20 -19 5 -21 4 -8 -6 19 -14 24
-61 10 -88 -7 -13 -7 -19 0 -19 5 0 10 -9 10 -20 0 -10 7 -23 16 -28 14 -8 15
-14 5 -43 -9 -27 -9 -36 4 -48 13 -14 15 -12 15 12 0 15 4 27 10 27 5 0 7 8 4
18 -5 14 -4 14 4 2 14 -23 24 -128 12 -132 -7 -2 -8 -17 -2 -43 9 -39 9 -39
20 -15 8 18 11 20 11 7 1 -10 11 -22 24 -27 17 -7 18 -9 5 -9 -10 -1 -18 -5
-18 -10 0 -5 -8 -11 -17 -13 -14 -3 -10 -8 15 -21 32 -18 45 -34 17 -23 -9 3
-15 0 -15 -8 0 -7 -7 -28 -16 -46 -16 -31 -16 -34 0 -45 12 -9 15 -21 11 -37
-4 -16 0 -32 14 -49 17 -20 20 -21 21 -6 0 10 5 15 10 12 6 -4 8 -11 4 -16 -3
-5 5 -18 18 -29 16 -14 19 -19 8 -20 -10 0 -4 -9 14 -23 25 -21 29 -31 31 -83
1 -32 4 -66 6 -74 3 -10 -2 -14 -13 -12 -19 3 -24 -13 -8 -23 19 -12 10 -33
-22 -49 l-33 -16 37 0 c36 0 57 -13 39 -24 -5 -4 -12 -2 -16 4 -9 15 -25 12
-25 -4 0 -9 -10 -13 -32 -10 -18 1 -37 3 -41 3 -5 1 -6 5 -3 10 3 5 -1 12 -10
15 -23 9 -54 7 -54 -2 0 -5 -13 -9 -30 -9 -31 0 -139 -31 -225 -66 -27 -11
-61 -24 -75 -29 -14 -6 -33 -14 -43 -19 -9 -5 -38 -12 -62 -16 -25 -3 -48 -10
-51 -14 -9 -15 -24 -10 -24 7 0 23 -20 6 -36 -30 -13 -30 -13 -30 -14 -6 -1
22 -2 23 -11 8 -5 -10 -17 -18 -24 -18 -8 0 -15 -8 -16 -17 0 -15 -2 -15 -9 2
-5 12 -9 14 -9 6 -1 -11 -5 -10 -16 5 -13 18 -14 16 -15 -20 0 -30 -3 -36 -13
-28 -7 7 -18 7 -27 2 -12 -7 -12 -11 1 -26 9 -11 9 -15 2 -10 -8 4 -13 2 -13
-7 0 -8 -10 -25 -23 -37 -18 -18 -23 -31 -21 -66 2 -24 -1 -44 -6 -44 -6 0 -6
-10 0 -26 13 -33 13 -33 -9 -27 -24 6 -35 -22 -15 -41 8 -8 22 -13 32 -10 13
5 14 4 3 -4 -7 -5 -11 -14 -7 -20 3 -6 2 -14 -4 -17 -8 -5 -7 -14 3 -29 8 -12
18 -40 22 -64 6 -36 4 -41 -9 -36 -11 4 -16 1 -16 -10 0 -11 7 -16 17 -14 15
2 17 -3 15 -31 -3 -23 0 -31 8 -26 8 5 7 0 -1 -13 -10 -16 -10 -26 -2 -44 7
-13 15 -60 18 -105 4 -44 13 -93 21 -108 8 -15 14 -37 14 -49 0 -12 5 -27 11
-33 7 -7 8 -17 3 -25 -5 -7 -9 -38 -9 -68 0 -48 -6 -64 -48 -128 -35 -53 -54
-72 -70 -72 -31 0 -104 -23 -107 -34 -1 -5 4 -13 12 -17 9 -6 6 -9 -11 -9 -19
0 -21 -3 -11 -15 6 -8 9 -18 6 -24 -4 -5 3 -12 13 -16 16 -5 20 -14 18 -43 -2
-36 -1 -37 32 -37 24 0 42 8 62 28 15 15 35 27 43 27 9 0 16 4 16 10 0 5 6 7
14 4 8 -3 27 8 44 25 16 17 37 31 46 31 26 0 120 100 147 155 29 63 29 138 -2
171 -24 26 -45 94 -31 103 5 3 14 23 20 44 6 20 7 35 3 32 -10 -5 -21 53 -21
107 0 21 -11 57 -24 80 -22 41 -46 117 -28 90 6 -9 13 -7 30 8 12 12 22 26 22
31 0 6 10 19 23 30 l22 18 -25 2 c-14 1 -32 1 -42 0 -27 -3 -32 19 -8 41 21
19 29 20 129 13 58 -4 125 -8 149 -9 23 0 42 -3 42 -7 0 -4 9 -9 20 -12 11 -3
20 0 20 5 0 6 6 5 15 -2 12 -10 16 -9 21 3 7 21 43 28 68 15 20 -11 20 -11 -4
-21 -14 -6 -28 -11 -32 -11 -14 -2 -21 -16 -7 -16 21 0 89 20 89 26 0 3 -7 12
-15 21 -17 17 -11 35 9 27 8 -3 16 2 19 13 4 16 6 15 12 -4 10 -30 21 -29 57
7 39 39 60 50 98 50 37 0 81 23 99 52 10 16 10 23 -2 36 -8 10 -18 27 -21 40
-4 12 -14 22 -23 22 -8 0 -17 9 -20 20 -6 21 -18 26 -28 11 -3 -6 -18 -5 -38
1 -59 19 -171 37 -234 38 -34 0 -65 5 -68 10 -4 7 -11 7 -18 2 -18 -14 -104
-24 -111 -14 -5 8 46 37 66 37 4 0 13 6 20 13 6 6 21 12 33 12 11 0 29 6 40
14 11 7 31 16 45 20 l25 7 -24 -14 -24 -14 29 -6 c18 -4 33 -1 39 7 16 20 53
37 57 26 2 -7 15 -7 38 0 47 13 91 13 70 0 -12 -8 -12 -10 5 -10 15 0 17 -2 6
-9 -9 -6 3 -11 35 -16 27 -5 54 -8 60 -7 7 2 14 -5 18 -13 5 -14 9 -14 38 1
21 10 28 11 21 3 -17 -17 -16 -29 1 -29 19 0 28 -27 20 -66 -6 -34 -6 -34 32
-34 21 0 53 -5 71 -12 32 -12 40 -29 34 -75 -1 -7 3 -22 10 -34 9 -17 13 -19
20 -8 5 8 9 10 9 4 0 -5 -4 -17 -10 -25 -5 -9 -5 -19 1 -27 16 -18 12 -132 -5
-181 -8 -23 -11 -42 -6 -42 21 0 12 -22 -31 -69 -23 -26 -29 -47 -16 -60 8 -8
5 -16 -11 -31 -16 -16 -20 -27 -15 -50 4 -20 0 -36 -10 -48 -8 -9 -20 -33 -25
-52 -23 -76 -39 -113 -45 -99 -3 9 -6 6 -6 -7 -1 -11 -9 -36 -18 -55 -28 -55
-43 -102 -43 -138 0 -19 -3 -31 -6 -28 -11 11 -49 -46 -50 -77 -1 -16 -9 -35
-18 -41 -9 -7 -16 -22 -16 -35 0 -12 -9 -33 -20 -47 -11 -14 -20 -36 -20 -48
0 -12 -9 -30 -20 -40 -11 -10 -20 -26 -20 -36 0 -10 -4 -21 -10 -24 -5 -3 -10
-24 -10 -45 0 -21 -5 -42 -11 -46 -6 -3 -17 -22 -25 -40 -8 -19 -18 -34 -22
-34 -5 0 -15 -11 -22 -25 -7 -14 -19 -25 -27 -25 -7 0 -13 -5 -13 -11 0 -5
-29 -39 -63 -74 -56 -55 -117 -146 -117 -174 0 -6 -11 -21 -25 -35 -18 -19
-25 -36 -25 -66 0 -25 5 -40 13 -40 6 0 3 -8 -9 -18 -11 -9 -28 -29 -37 -44
-10 -16 -24 -28 -32 -28 -8 0 -15 -7 -15 -15 0 -14 -12 -20 -33 -16 -4 1 -32
-6 -62 -14 -66 -20 -127 -15 -268 19 -56 13 -129 30 -162 37 -33 7 -87 25
-120 40 -33 15 -71 30 -84 34 -26 8 -99 75 -81 75 5 0 10 6 10 13 1 25 38 57
67 57 15 0 34 4 41 9 8 5 31 2 55 -6 22 -8 51 -12 64 -8 13 3 23 1 23 -4 0 -5
24 -9 53 -10 28 -1 59 -2 67 -4 59 -8 240 36 240 59 0 7 16 16 38 20 47 9 127
50 113 59 -17 10 -13 35 7 42 29 10 61 44 55 59 -3 9 7 19 28 28 44 19 51 26
38 43 -16 19 7 44 39 41 35 -4 53 26 27 46 -22 17 -81 21 -89 7 -8 -12 -87 -6
-176 14 -127 29 -250 36 -275 15 -21 -18 -107 -29 -126 -17 -13 8 -24 8 -44
-3 -31 -17 -97 -20 -107 -5 -5 6 -8 6 -8 -2 0 -7 -7 -10 -15 -6 -9 3 -42 -4
-74 -16 -85 -31 -158 -32 -199 -2 -22 15 -40 21 -55 17 -67 -20 -104 -17 -135
9 -17 14 -40 46 -52 70 -12 25 -36 58 -53 74 -79 72 -92 82 -116 87 -37 7 -91
32 -91 41 0 12 -130 145 -182 186 -46 37 -71 40 -82 11 -3 -9 1 -14 14 -14 15
0 18 -5 14 -27 -5 -28 -44 -93 -55 -93 -3 0 -14 -18 -24 -40 -10 -22 -26 -42
-36 -45 -12 -4 -19 -16 -19 -31 0 -26 21 -32 39 -10 6 7 37 25 69 40 31 15 68
35 82 46 14 11 40 24 57 29 30 9 32 8 23 -9 -13 -25 -13 -31 3 -29 36 4 40 -1
34 -47 -2 -26 -9 -49 -13 -53 -16 -11 -64 -79 -64 -90 0 -5 -9 -12 -19 -16
-16 -5 -18 -11 -10 -37 5 -18 6 -61 2 -97 -8 -83 -8 -95 2 -155 7 -46 7 -48
-14 -41 -18 5 -21 2 -21 -22 0 -44 13 -56 49 -48 30 6 31 5 31 -25 0 -55 50
-138 131 -219 161 -160 198 -193 208 -187 6 4 11 4 11 -1 1 -4 15 -24 32 -43
29 -32 30 -32 13 -5 -24 38 -34 50 -67 82 -15 14 -25 29 -22 34 2 4 -12 15
-31 25 -20 9 -58 42 -86 73 -45 51 -48 56 -29 63 29 11 25 16 -7 10 -25 -5
-27 -4 -14 12 16 19 7 34 -12 18 -8 -7 -18 -7 -27 -2 -12 8 -10 10 8 10 15 0
22 5 19 13 -2 6 -18 12 -35 12 -48 0 -66 25 -66 92 1 144 6 251 14 283 13 48
60 102 109 125 22 11 41 25 41 30 0 13 66 55 86 55 25 0 74 -56 74 -85 0 -27
-40 -115 -52 -115 -14 0 -9 -37 7 -50 9 -7 15 -27 14 -44 0 -17 4 -49 10 -71
5 -22 12 -52 16 -68 4 -18 12 -27 25 -27 11 0 29 -9 40 -20 11 -11 20 -17 20
-12 0 4 4 2 8 -5 19 -30 137 -113 161 -113 14 0 57 -11 95 -25 38 -13 94 -29
125 -36 30 -6 72 -22 93 -35 21 -14 60 -29 86 -34 26 -5 67 -16 92 -25 54 -19
251 -67 375 -90 103 -19 179 -41 215 -63 61 -37 107 -69 136 -95 18 -15 38
-33 46 -40 9 -7 34 -37 56 -67 74 -100 180 -454 212 -708 7 -51 8 -101 4 -110
-16 -35 -32 -106 -27 -119 6 -15 -2 -15 -151 -15 -68 0 -94 -3 -83 -10 10 -5
15 -14 11 -19 -3 -6 -13 -1 -24 11 -22 26 -133 31 -124 5 4 -8 12 -15 20 -15
8 0 14 -9 14 -20 0 -20 0 -20 -20 0 -11 11 -27 20 -35 20 -8 0 -15 5 -15 10 0
6 5 10 11 10 5 0 7 5 4 10 -5 8 -11 7 -21 -1 -11 -9 -17 -9 -29 1 -22 18 -53
-14 -35 -36 7 -8 10 -17 6 -21 -3 -3 -6 0 -6 8 0 12 -2 11 -11 -1 -9 -13 -10
-12 -5 3 3 9 1 17 -4 17 -6 0 -10 -5 -10 -12 0 -6 -9 -3 -20 7 -11 10 -20 26
-20 37 0 13 -7 18 -25 18 -26 0 -33 -14 -14 -26 8 -4 8 -9 0 -17 -7 -7 -16 -6
-29 6 -10 9 -21 14 -24 11 -3 -3 -9 -1 -12 5 -4 5 3 12 14 16 30 10 24 22 -14
29 -41 8 -58 26 -61 67 -1 17 -8 35 -16 40 -12 8 -12 11 1 19 12 7 12 10 1 10
-8 0 -11 6 -7 16 3 9 -2 32 -11 52 -9 20 -16 46 -15 59 1 13 -3 23 -8 23 -6 0
-10 12 -10 26 0 23 -2 25 -15 14 -14 -11 -14 -10 -5 14 12 34 13 46 0 26 -7
-11 -12 -12 -20 -4 -8 8 -2 17 22 32 30 20 31 22 10 22 -21 0 -23 3 -17 30 4
19 3 30 -5 30 -6 0 -14 8 -17 18 -4 9 -13 22 -20 27 -7 6 -14 20 -16 32 -2 12
-6 26 -10 29 -4 4 -7 20 -7 36 0 19 5 28 16 28 10 0 14 6 11 14 -3 7 -1 18 4
23 13 13 1 43 -17 43 -8 0 -14 5 -14 10 0 6 -8 10 -18 10 -10 0 -27 6 -38 14
-11 8 -38 18 -60 22 -21 4 -44 14 -51 23 -6 9 -15 13 -18 9 -4 -4 -16 -3 -26
2 -12 7 -20 7 -24 -1 -5 -7 -11 -5 -18 5 -7 8 -21 16 -32 18 -11 2 -20 10 -20
18 -1 8 -6 14 -13 13 -7 -2 -12 2 -12 7 0 6 -5 10 -12 10 -6 0 -20 8 -30 17
-37 33 -78 39 -223 32 -107 -5 -145 -3 -161 7 -24 15 -34 9 -34 -18 0 -10 -7
-18 -15 -18 -9 0 -15 -9 -15 -25 0 -18 -7 -26 -24 -31 -34 -8 -140 25 -158 51
-4 5 -10 6 -15 2 -4 -4 -2 -16 5 -25 7 -9 18 -29 25 -44 6 -16 15 -28 19 -28
4 0 8 -4 8 -10 0 -5 -4 -10 -9 -10 -5 0 -22 -5 -38 -12 -15 -6 -31 -11 -35
-10 -5 1 -8 -3 -8 -8 0 -23 -68 -9 -121 25 -54 33 -82 67 -124 147 -11 21 -23
38 -26 38 -4 0 -9 10 -13 23 -3 12 -32 53 -66 90 -33 37 -60 73 -60 79 0 6 -3
8 -7 5 -10 -11 -32 13 -26 29 3 8 -1 14 -11 14 -8 0 -20 9 -26 20 -6 11 -18
20 -28 20 -13 0 -14 2 -3 9 10 7 9 11 -5 22 -11 8 -28 31 -38 51 -10 21 -23
35 -27 32 -5 -3 -9 6 -9 20 0 14 -5 26 -11 26 -5 0 -7 -4 -4 -10 7 -12 -5 -13
-22 -2 -9 6 -7 12 7 25 27 23 26 47 -3 47 -15 0 -29 9 -37 25 -8 16 -22 25
-36 25 -15 0 -22 5 -18 13 4 12 -74 63 -83 54 -10 -11 23 -61 92 -137 43 -47
102 -119 133 -160 30 -41 101 -122 158 -179 70 -71 112 -122 130 -160 15 -31
40 -75 56 -99 15 -24 28 -47 28 -51 0 -5 6 -14 14 -20 19 -16 26 -59 11 -65
-7 -2 -31 -2 -54 1 -32 4 -52 17 -96 60 -30 30 -55 59 -55 65 0 6 -3 8 -6 5
-4 -4 -18 15 -32 41 -14 26 -42 73 -63 105 -22 32 -39 64 -39 70 0 7 -26 39
-56 72 -31 33 -67 80 -82 105 -14 25 -36 59 -49 76 -13 17 -23 41 -23 52 0 12
-4 22 -8 22 -5 0 -16 16 -25 36 -10 19 -22 32 -27 29 -10 -6 -70 52 -70 69 0
5 -14 -10 -30 -33 -17 -23 -42 -47 -56 -53 -15 -7 -27 -23 -31 -40 -3 -16 -9
-31 -13 -33 -13 -8 -40 6 -40 20 0 24 -28 25 -34 1 -3 -12 -16 -28 -30 -34
-20 -9 -25 -8 -29 7 -6 23 15 51 39 51 10 0 31 10 46 23 80 67 101 81 164 111
36 17 64 56 64 88 0 13 7 48 16 78 9 30 26 105 39 167 13 61 26 122 30 135 6
22 5 22 -10 -2 -16 -25 -16 -25 -10 13 4 25 2 37 -6 37 -12 0 -6 66 13 131 8
29 7 57 -7 124 -9 47 -14 89 -11 92 3 4 6 1 6 -5 0 -7 4 -12 9 -12 5 0 7 15 6
33 -2 17 -3 38 -4 46 -1 7 -7 11 -16 7 -9 -3 -15 0 -15 10 0 8 5 12 10 9 6 -4
13 7 16 24 7 34 20 41 27 14 4 -14 5 -13 6 4 0 12 -3 25 -9 28 -5 3 -11 50
-11 103 -1 53 -4 86 -6 72 -9 -51 -20 -39 -27 27 -4 37 -6 75 -6 83 1 8 1 32
1 53 0 25 3 36 10 31 8 -4 9 -26 5 -61 -5 -42 -3 -54 6 -51 16 5 24 148 9 148
-5 0 -11 -3 -14 -7 -2 -5 -2 -2 0 5 1 8 3 22 3 32 0 10 9 20 20 23 16 4 18 1
13 -24 -5 -28 11 -42 19 -17 5 13 58 -59 58 -77 0 -5 14 -18 30 -27 34 -19 40
-8 11 21 -22 22 -76 116 -62 107 5 -3 11 7 14 22 3 15 9 35 12 45 13 31 -10
18 -29 -18 -21 -38 -31 -43 -40 -19 -11 30 -6 56 13 61 10 3 26 21 35 41 9 21
26 48 36 62 l20 25 -1 -25 c0 -14 -6 -34 -14 -44 -8 -11 -15 -27 -15 -35 0
-11 4 -10 15 5 19 25 19 15 0 -29 -8 -20 -15 -58 -15 -85 0 -32 5 -54 15 -62
13 -11 15 -6 16 36 1 27 4 62 8 77 l6 28 16 -28 c9 -15 22 -56 29 -91 23 -112
33 -85 28 74 -3 82 -2 212 3 289 5 77 9 172 10 210 1 87 18 173 30 154 7 -11
9 -11 9 1 0 13 1 13 10 0 7 -11 10 -6 10 22 0 20 5 40 10 43 6 3 10 16 10 28
0 12 7 35 15 51 8 15 12 32 9 37 -3 5 2 6 10 3 11 -4 16 0 16 10 0 9 6 19 14
22 8 3 12 13 9 25 -3 10 0 19 6 19 6 0 11 -8 11 -17 1 -10 7 -3 15 16 8 18 12
37 9 42 -3 5 0 9 5 9 6 0 11 6 11 13 0 7 15 30 32 52 18 22 25 34 15 26 -24
-19 -21 2 3 24 11 10 20 23 20 30 0 7 11 24 25 39 16 17 25 39 25 58 0 34 30
140 42 148 4 3 3 11 -1 19 -6 9 -10 5 -15 -13 -7 -30 -26 -26 -26 5 0 11 5 17
10 14 6 -3 10 1 10 9 0 8 -4 18 -10 21 -13 8 -13 72 0 80 6 4 7 11 4 17 -4 6
0 15 7 20 10 7 8 8 -9 5 -15 -4 -22 -1 -19 6 2 7 11 11 20 11 9 -1 14 2 11 7
-3 5 5 9 18 9 38 0 71 12 58 20 -18 11 -3 44 29 63 16 9 51 18 78 18 26 1 37
4 23 6 -14 3 -29 9 -35 15 -7 7 -1 9 20 5 17 -4 24 -4 18 -1 -7 3 -13 9 -13
14 0 13 90 28 131 23 21 -3 40 0 43 6 5 7 -6 11 -33 11 -30 0 -43 5 -51 19
-13 25 -13 34 0 26 6 -3 10 -1 10 4 0 6 -4 11 -10 11 -5 0 -10 5 -10 10 0 20
21 9 30 -15 5 -14 11 -25 14 -25 2 0 12 -3 20 -6 12 -5 15 -2 10 9 -4 11 0 15
14 14 12 0 19 -4 16 -9 -2 -4 6 -12 18 -19 20 -11 22 -11 10 4 -11 13 -10 16
5 20 15 3 13 6 -9 15 -33 13 -37 27 -7 19 21 -6 21 -6 7 43 -3 8 -3 12 -1 7 3
-4 9 -5 13 -2z m-26 -20 c3 -8 1 -15 -3 -15 -5 0 -11 7 -15 15 -3 8 -1 15 3
15 5 0 11 -7 15 -15z m1373 -27 c-3 -7 -5 -2 -5 12 0 14 2 19 5 13 2 -7 2 -19
0 -25z m1013 28 c0 -2 -7 -7 -16 -10 -8 -3 -12 -2 -9 4 6 10 25 14 25 6z
m-2526 -32 c12 -5 13 -9 3 -19 -8 -9 -16 -10 -24 -3 -26 21 -12 35 21 22z
m2491 -12 c-3 -3 -11 0 -18 7 -9 10 -8 11 6 5 10 -3 15 -9 12 -12z m172 2 c-3
-3 -12 -4 -19 -1 -8 3 -5 6 6 6 11 1 17 -2 13 -5z m-2752 -43 c-6 -5 -25 10
-25 20 0 5 6 4 14 -3 8 -7 12 -15 11 -17z m75 -10 c0 -5 9 -7 20 -4 11 3 20 0
20 -6 0 -6 -15 -11 -32 -11 -18 0 -44 -3 -58 -6 l-25 -6 25 21 c26 22 50 27
50 12z m784 -7 c3 -8 2 -12 -4 -9 -6 3 -10 10 -10 16 0 14 7 11 14 -7z m213
-31 c-3 -10 -5 -2 -5 17 0 19 2 27 5 18 2 -10 2 -26 0 -35z m-1182 7 c3 -5 1
-10 -4 -10 -6 0 -11 5 -11 10 0 6 2 10 4 10 3 0 8 -4 11 -10z m80 -19 c3 -5 2
-12 -3 -15 -5 -3 -9 1 -9 9 0 17 3 19 12 6z m1780 -12 c6 -19 0 -38 -9 -28
-10 12 -16 49 -7 49 5 0 13 -9 16 -21z m-1810 -19 c-3 -5 -10 -10 -16 -10 -5
0 -9 5 -9 10 0 6 7 10 16 10 8 0 12 -4 9 -10z m2962 4 c-3 -3 -12 -4 -19 -1
-8 3 -5 6 6 6 11 1 17 -2 13 -5z m-41 -62 c1 -27 -2 -39 -6 -28 -4 12 -9 16
-13 9 -4 -6 -4 -19 -1 -30 7 -17 6 -17 -12 -1 -18 17 -18 18 1 34 17 13 17 15
3 10 -12 -3 -18 0 -18 9 0 10 6 12 18 8 14 -6 15 -4 5 9 -13 15 -8 28 11 28 6
0 11 -21 12 -48z m-2966 10 c0 -12 -23 -32 -37 -32 -9 0 -8 6 4 20 18 21 33
26 33 12z m1865 -52 c-3 -5 -11 -10 -16 -10 -6 0 -7 5 -4 10 3 6 11 10 16 10
6 0 7 -4 4 -10z m1020 -100 c-8 -35 -12 -66 -10 -69 3 -2 5 1 5 7 0 7 4 12 10
12 5 0 7 -7 4 -15 -4 -8 -12 -15 -20 -15 -15 0 -16 18 -5 98 4 29 4 55 -1 58
-4 3 -8 10 -8 17 0 6 9 3 19 -8 18 -19 18 -24 6 -85z m-51 64 c3 -8 2 -12 -4
-9 -6 3 -10 10 -10 16 0 14 7 11 14 -7z m168 -29 c-4 -5 -5 -23 -4 -40 1 -25
0 -27 -7 -10 -12 24 -14 79 -4 89 9 9 22 -26 15 -39z m-3091 -21 c-9 -17 -10
-18 -11 -1 0 9 -4 17 -10 17 -5 0 -7 7 -3 16 5 14 7 14 20 1 12 -11 13 -19 4
-33z m3015 1 c18 -44 18 -54 -1 -29 -15 18 -15 18 -8 0 4 -13 3 -17 -5 -12 -7
4 -12 2 -12 -5 0 -7 -2 -10 -5 -7 -6 6 5 88 12 88 2 0 11 -16 19 -35z m-3057
-32 l-1 -48 -10 34 c-5 18 -7 40 -4 47 10 27 16 14 15 -33z m2916 17 c3 -5 1
-10 -4 -10 -6 0 -11 5 -11 10 0 6 2 10 4 10 3 0 8 -4 11 -10z m-838 -47 c-3
-10 -5 -4 -5 12 0 17 2 24 5 18 2 -7 2 -21 0 -30z m-2050 -5 c-3 -8 -6 -5 -6
6 -1 11 2 17 5 13 3 -3 4 -12 1 -19z m3191 2 c-11 -18 -28 -27 -28 -16 0 2 -3
11 -6 20 -5 12 0 16 20 16 24 0 25 -2 14 -20z m-152 -5 c4 -8 1 -21 -5 -29 -6
-7 -8 -16 -4 -19 3 -4 -3 -7 -15 -7 -12 0 -22 5 -22 10 0 6 6 9 13 8 7 -2 12
8 12 25 -1 29 12 36 21 12z m28 -48 c-21 -12 -27 -3 -19 24 7 22 8 22 21 4 12
-17 12 -20 -2 -28z m-3097 1 c-3 -8 -6 -5 -6 6 -1 11 2 17 5 13 3 -3 4 -12 1
-19z m3196 8 c6 -16 -2 -28 -14 -20 -12 7 -11 34 0 34 5 0 11 -6 14 -14z
m-1116 -33 c-3 -10 -5 -4 -5 12 0 17 2 24 5 18 2 -7 2 -21 0 -30z m-2050 -40
c-2 -16 -4 -5 -4 22 0 28 2 40 4 28 2 -13 2 -35 0 -50z m2958 58 c3 -5 1 -12
-5 -16 -5 -3 -10 1 -10 9 0 18 6 21 15 7z m272 -14 c6 -4 13 -1 16 5 3 10 9 9
23 -3 10 -9 27 -19 37 -22 9 -4 17 -16 17 -27 0 -12 7 -20 18 -20 16 -1 16 -1
0 -14 -20 -15 -24 -36 -7 -36 7 0 17 7 23 16 15 19 46 8 46 -16 0 -10 -6 -21
-12 -23 -8 -4 -7 -6 3 -6 12 -1 18 -13 21 -38 3 -21 1 -39 -4 -41 -14 -6 -9
-40 7 -46 8 -3 15 -12 15 -21 0 -8 -7 -15 -15 -15 -22 0 -18 -23 5 -38 11 -7
20 -22 20 -33 0 -17 -4 -20 -24 -15 -21 5 -23 3 -18 -22 3 -15 18 -46 33 -69
16 -23 29 -46 29 -51 0 -6 6 -13 13 -16 10 -5 10 -7 0 -12 -15 -6 -18 -44 -4
-44 5 0 8 -23 8 -52 -1 -28 -3 -46 -5 -40 -2 7 -10 12 -18 12 -8 0 -14 9 -14
20 0 11 -4 20 -10 20 -14 0 -13 -7 15 -65 18 -40 25 -72 27 -129 1 -42 5 -76
10 -76 4 0 8 -80 8 -177 0 -101 -4 -172 -9 -165 -15 24 -20 -11 -9 -59 5 -24
7 -59 4 -76 -2 -18 0 -33 5 -33 16 0 -2 -51 -37 -110 -18 -30 -42 -71 -53 -90
-10 -20 -31 -42 -45 -50 -14 -7 -26 -19 -26 -26 0 -15 -63 -30 -80 -19 -7 4
-14 -2 -17 -14 -5 -19 -10 -20 -62 -14 -33 4 -61 13 -68 22 -11 14 -12 12 -13
-10 0 -15 -7 -29 -15 -33 -8 -3 -15 -12 -15 -20 0 -8 -4 -16 -8 -18 -4 -1 -18
-18 -31 -36 -18 -26 -26 -30 -37 -21 -11 9 -16 6 -23 -14 -5 -13 -21 -33 -35
-45 -14 -11 -27 -32 -28 -46 -1 -15 -7 -25 -14 -22 -6 2 -22 -6 -35 -18 -31
-28 -58 -161 -40 -194 6 -11 11 -39 11 -61 0 -23 5 -41 10 -41 6 0 10 -9 10
-21 0 -11 4 -17 10 -14 5 3 12 -6 16 -20 3 -14 9 -25 13 -25 4 0 13 -17 20
-37 8 -21 17 -40 20 -43 9 -7 30 -42 40 -65 19 -45 21 -74 6 -89 -20 -20 -20
-86 0 -86 9 0 12 -6 8 -16 -6 -15 -7 -15 -20 1 -7 10 -14 17 -15 14 -24 -39
-38 -71 -38 -87 0 -25 -10 -28 -130 -42 -130 -15 -160 -27 -160 -61 0 -15 7
-35 16 -44 22 -22 12 -71 -34 -165 -46 -95 -77 -133 -116 -144 -48 -13 -144
-17 -151 -6 -3 6 -15 10 -26 10 -11 0 -22 7 -25 15 -10 25 -74 49 -126 47 -37
-2 -52 3 -73 22 -14 13 -25 31 -25 40 0 9 -4 16 -9 16 -8 0 -16 30 -27 90 -1
8 -6 29 -12 46 -9 29 -6 34 84 127 51 54 96 106 99 117 4 11 11 20 16 20 5 0
9 6 9 14 0 7 7 19 15 26 14 12 32 46 81 158 8 18 14 39 14 47 0 8 4 15 8 15 8
0 45 108 49 145 1 11 11 58 23 105 11 47 23 125 26 175 3 49 6 101 8 115 10
73 19 110 27 110 5 0 8 8 6 18 -2 20 33 165 40 159 2 -3 -5 -47 -16 -98 -11
-52 -16 -98 -11 -102 12 -13 54 19 85 63 27 38 27 60 0 60 -24 0 -28 56 -8 98
22 45 53 56 53 18 0 -16 6 -26 14 -26 11 0 14 11 12 44 -1 25 4 52 11 62 7 10
13 26 13 36 0 9 13 24 30 33 16 8 37 26 45 39 17 25 50 219 41 241 -9 24 18
64 47 71 20 4 26 10 22 23 -3 11 5 27 23 45 26 24 32 26 56 15 14 -7 26 -20
26 -31 0 -11 7 -18 20 -18 11 0 20 7 20 15 0 8 -4 15 -10 15 -11 0 -30 32 -35
61 -5 25 10 24 35 -1 18 -18 25 -39 21 -62 0 -5 3 -8 8 -8 9 0 11 -7 37 -99
16 -58 13 -71 -11 -51 -19 16 -19 16 6 -55 31 -85 32 -283 4 -373 -11 -34 -23
-62 -27 -62 -5 0 -8 -6 -8 -14 0 -10 10 -6 29 12 23 21 33 42 43 97 16 84 16
208 -1 291 -7 34 -11 86 -10 118 2 31 1 56 -3 56 -5 0 -8 8 -8 18 1 13 6 10
25 -13 14 -16 25 -35 25 -41 0 -7 7 -14 15 -18 9 -3 15 0 15 9 0 8 -4 15 -8
15 -10 0 -41 85 -47 129 -2 18 -11 41 -19 50 -9 10 -16 23 -16 30 0 6 -8 11
-17 9 -15 -3 -18 4 -15 40 3 33 0 42 -12 42 -19 0 -20 17 -2 49 8 15 16 20 20
12 4 -6 22 -11 39 -10 18 0 26 3 19 6 -17 7 -62 48 -62 57 0 16 53 76 68 76
37 0 142 -157 142 -212 0 -9 4 -19 9 -22 5 -3 14 -26 20 -51 6 -25 15 -44 19
-44 21 4 31 -4 41 -28 10 -26 11 -26 6 11 -2 21 -13 47 -24 57 -11 10 -23 39
-27 64 -3 25 -13 52 -21 60 -8 8 -12 19 -8 25 3 5 -3 20 -14 32 -12 12 -21 27
-21 34 0 7 -12 26 -26 43 -14 17 -22 36 -18 42 4 8 3 9 -5 5 -6 -4 -14 0 -17
8 -9 25 -96 22 -119 -4 -10 -11 -21 -17 -25 -15 -5 3 -22 -6 -38 -20 -16 -13
-32 -22 -36 -18 -10 10 -7 43 4 43 14 0 13 57 -1 62 -6 2 -8 14 -4 30 7 28 10
29 93 12 25 -5 30 11 6 20 -9 3 -29 6 -45 6 -22 0 -29 5 -29 20 0 11 -6 20
-14 20 -24 0 -6 41 23 51 14 6 33 16 41 24 8 7 24 15 35 18 11 2 4 3 -15 1
l-35 -3 23 19 c12 10 22 25 22 33 0 9 3 17 8 19 10 4 62 86 62 98 0 5 4 10 9
10 10 0 24 38 22 61 -1 9 6 22 14 29 14 12 18 11 26 -1 12 -17 9 -37 -22 -153
-20 -73 -28 -90 -48 -97 -33 -13 -12 -33 26 -25 23 5 28 11 27 36 -1 39 25
162 36 174 19 19 33 -52 38 -181 2 -73 8 -130 13 -127 5 3 9 16 9 30 0 15 6
24 15 24 9 0 15 9 15 21 0 15 5 19 15 15 8 -3 15 -2 15 2 0 11 -19 37 -23 32
-2 -3 -11 -16 -20 -30 -17 -24 -17 -24 -17 25 -1 56 -21 164 -40 211 -14 32
-6 89 10 79 11 -7 34 34 25 43 -4 4 -13 -2 -21 -12 -13 -19 -14 -19 -14 5 0
14 -6 31 -12 37 -10 10 -8 12 7 9 11 -1 25 -6 32 -10z m-157 -7 c0 -5 -9 -10
-20 -10 -11 0 -20 5 -20 10 0 6 9 10 20 10 11 0 20 -4 20 -10z m-84 -30 c0
-11 -4 -20 -8 -20 -4 0 -8 9 -8 20 0 11 4 20 8 20 4 0 8 -9 8 -20z m182 -20
c-2 -7 -10 1 -17 16 -12 27 -11 28 4 12 10 -9 16 -21 13 -28z m-134 11 c3 -5
-1 -12 -10 -15 -20 -8 -29 -1 -19 13 8 13 22 14 29 2z m-3044 -42 c0 -5 -4 -9
-10 -9 -5 0 -10 7 -10 16 0 8 5 12 10 9 6 -3 10 -10 10 -16z m3100 0 c0 -5 -7
-9 -15 -9 -9 0 -12 6 -9 15 6 15 24 11 24 -6z m-138 -14 c0 -5 -5 -11 -11 -13
-6 -2 -11 4 -11 13 0 9 5 15 11 13 6 -2 11 -8 11 -13z m-2982 -38 c0 -5 -4 -5
-10 -2 -5 3 -10 14 -10 23 0 15 2 15 10 2 5 -8 10 -19 10 -23z m2267 1 c-3 -8
-6 -5 -6 6 -1 11 2 17 5 13 3 -3 4 -12 1 -19z m833 17 c0 -2 -9 -9 -20 -15
-16 -9 -20 -8 -20 5 0 8 9 15 20 15 11 0 20 -2 20 -5z m-3125 -24 c3 -5 1 -12
-5 -16 -5 -3 -10 1 -10 9 0 18 6 21 15 7z m3034 -30 c-19 -26 -49 -42 -49 -26
0 8 63 65 67 61 3 -2 -5 -18 -18 -35z m-3064 -40 c-3 -6 -11 -11 -17 -11 -6 0
-6 6 2 15 14 17 26 13 15 -4z m3029 -8 c-5 -5 -12 -12 -15 -16 -3 -5 -9 -2
-12 7 -5 12 0 16 15 16 12 0 17 -3 12 -7z m20 -42 c3 -5 -3 -19 -13 -32 -10
-13 -20 -31 -23 -38 -4 -13 -5 -13 -10 0 -7 17 19 79 33 79 4 0 10 -4 13 -9z
m-3059 -31 c-3 -5 -11 -10 -16 -10 -6 0 -7 5 -4 10 3 6 11 10 16 10 6 0 7 -4
4 -10z m-445 -25 c-7 -8 -19 -15 -26 -15 -8 0 -11 6 -8 15 4 8 15 15 26 15 17
0 18 -3 8 -15z m390 -35 c-24 -15 -36 -11 -14 4 10 8 21 12 24 10 2 -3 -2 -9
-10 -14z m-393 -22 c-3 -7 -5 -2 -5 12 0 14 2 19 5 13 2 -7 2 -19 0 -25z m406
-29 c-6 -6 -19 -9 -29 -6 -17 4 -17 6 3 12 13 4 20 12 16 19 -3 6 0 6 8 -1 9
-10 10 -16 2 -24z m-431 -53 c-10 -20 -20 -29 -24 -22 -4 6 2 21 14 33 29 31
31 29 10 -11z m3463 4 c-10 -11 -20 -18 -23 -15 -7 6 18 35 31 35 5 0 2 -9 -8
-20z m-3418 -42 c-3 -8 -6 -5 -6 6 -1 11 2 17 5 13 3 -3 4 -12 1 -19z m-73 -4
c3 -8 2 -12 -4 -9 -6 3 -10 10 -10 16 0 14 7 11 14 -7z m-12 -49 c-6 -34 -12
-32 -12 6 0 16 4 28 9 25 4 -3 6 -17 3 -31z m98 16 c0 -6 -4 -13 -10 -16 -5
-3 -10 1 -10 9 0 9 5 16 10 16 6 0 10 -4 10 -9z m3410 -27 c0 -8 -4 -14 -9
-14 -11 0 -22 26 -14 34 9 9 23 -3 23 -20z m-29 -125 c-9 -22 -10 -22 -10 -3
-1 11 2 24 6 27 12 12 14 0 4 -24z m-3408 -12 c3 -8 1 -20 -4 -28 -6 -10 -9
-7 -9 14 0 29 5 35 13 14z m34 -29 c-3 -8 -6 -5 -6 6 -1 11 2 17 5 13 3 -3 4
-12 1 -19z m3349 -44 c-19 -18 -20 -14 -4 23 9 22 12 24 15 11 3 -10 -3 -25
-11 -34z m-3429 -136 c-3 -8 -6 -5 -6 6 -1 11 2 17 5 13 3 -3 4 -12 1 -19z
m65 -20 c-7 -7 -12 -8 -12 -2 0 14 12 26 19 19 2 -3 -1 -11 -7 -17z m-2 -38
c0 -11 7 -20 15 -20 8 0 15 -5 15 -10 0 -7 -6 -7 -20 0 -16 8 -20 8 -20 -4 0
-8 5 -16 11 -18 8 -3 6 -16 -7 -43 l-19 -40 -3 33 c-2 18 -8 30 -13 27 -5 -4
-9 1 -9 10 0 12 5 15 16 11 12 -5 15 -2 10 10 -7 19 3 64 15 64 5 0 9 -9 9
-20z m2850 -20 c0 -5 -4 -10 -9 -10 -6 0 -13 5 -16 10 -3 6 1 10 9 10 9 0 16
-4 16 -10z m-2820 -64 c0 -8 -4 -18 -10 -21 -5 -3 -10 3 -10 14 0 12 5 21 10
21 6 0 10 -6 10 -14z m26 -23 c-10 -10 -19 5 -10 18 6 11 8 11 12 0 2 -7 1
-15 -2 -18z m2151 -15 c-3 -8 -6 -5 -6 6 -1 11 2 17 5 13 3 -3 4 -12 1 -19z
m43 8 c0 -3 -4 -8 -10 -11 -5 -3 -10 -1 -10 4 0 6 5 11 10 11 6 0 10 -2 10 -4z
m-2170 -20 c0 -7 -9 -25 -21 -40 -20 -25 -22 -26 -35 -9 -19 25 -18 30 14 46
35 19 42 20 42 3z m2050 -23 c13 -42 35 -74 65 -91 17 -10 15 -11 -20 -11
-103 1 -149 53 -97 109 15 16 30 30 34 30 4 0 12 -17 18 -37z m-2037 -12 c-3
-11 -13 -27 -23 -36 -18 -16 -18 -15 -2 19 18 38 33 48 25 17z m2117 5 c-7 -7
-14 -6 -21 1 -9 9 -7 12 9 10 14 -1 18 -5 12 -11z m260 1 c0 -14 -65 -75 -87
-82 -21 -6 -20 -3 10 43 23 36 38 49 54 48 13 -1 23 -4 23 -9z m-2470 -17 c0
-11 -7 -20 -15 -20 -18 0 -19 12 -3 28 16 16 18 15 18 -8z m-33 -62 c-3 -8 -6
-5 -6 6 -1 11 2 17 5 13 3 -3 4 -12 1 -19z m49 3 c-11 -12 -13 -20 -6 -23 13
-4 -25 -58 -41 -58 -15 0 -10 26 11 51 37 45 41 49 47 49 3 0 -2 -9 -11 -19z
m-66 -91 c0 -5 -5 -10 -11 -10 -5 0 -7 5 -4 10 3 6 8 10 11 10 2 0 4 -4 4 -10z
m3147 -77 c-3 -10 -5 -4 -5 12 0 17 2 24 5 18 2 -7 2 -21 0 -30z m-16 -60 c-8
-15 -10 -15 -11 -2 0 17 10 32 18 25 2 -3 -1 -13 -7 -23z m69 -58 c0 -10 -10
-15 -27 -15 -27 1 -27 1 -9 15 25 19 36 19 36 0z m-80 -25 c0 -5 -5 -10 -11
-10 -5 0 -7 5 -4 10 3 6 8 10 11 10 2 0 4 -4 4 -10z m-1110 -525 c-24 -37 -43
-42 -71 -16 -22 20 -18 44 6 35 7 -3 21 -2 29 3 9 5 25 9 36 9 19 0 19 -1 0
-31z m61 -562 c13 -16 12 -17 -3 -4 -10 7 -18 15 -18 17 0 8 8 3 21 -13z m-45
-29 c5 -28 -18 -73 -33 -67 -7 3 -13 -1 -13 -8 0 -12 -2 -12 -9 0 -7 11 -11
10 -20 -7 -7 -13 -17 -19 -27 -15 -10 4 -17 -2 -21 -16 -4 -14 -14 -21 -32
-22 -14 0 -36 -2 -49 -3 -13 -2 -27 4 -31 12 -7 12 -11 10 -25 -9 l-16 -23 -1
29 c-1 17 -3 22 -6 13 -4 -17 -15 -22 -40 -19 -6 1 -14 -3 -18 -9 -13 -20 -25
-9 -19 16 5 19 4 25 -5 20 -6 -4 -11 -13 -11 -21 0 -23 -70 -22 -139 3 -47 16
-67 19 -72 11 -4 -8 -11 -4 -19 11 -8 15 -15 19 -19 11 -5 -8 -17 -7 -42 6
-31 15 -128 82 -104 71 6 -2 25 -10 43 -17 17 -7 32 -18 32 -23 0 -6 6 -5 15
2 9 8 15 8 15 2 0 -13 69 -37 78 -27 4 4 -1 12 -11 19 -9 7 -17 19 -17 25 0 7
-4 10 -8 7 -4 -2 -14 0 -22 5 -13 8 -13 10 0 18 8 6 17 6 20 2 3 -4 19 -10 35
-14 17 -3 39 -8 50 -12 11 -3 0 5 -25 19 -49 28 -38 31 45 15 28 -5 76 -11
108 -13 36 -2 63 -8 69 -17 7 -11 11 -11 15 -1 2 6 19 12 36 12 18 0 49 5 69
10 21 6 74 12 118 13 44 1 80 6 80 10 0 17 23 0 26 -19z m1975 -626 c32 -14
68 -65 81 -115 8 -33 4 -53 -24 -138 -31 -93 -36 -102 -82 -137 -56 -41 -105
-53 -174 -43 -85 13 -117 43 -127 121 -15 111 27 203 126 278 73 55 130 65
200 34z m-2131 -668 c0 -5 -4 -10 -9 -10 -6 0 -13 5 -16 10 -3 6 1 10 9 10 9
0 16 -4 16 -10z m-3 -482 c-3 -8 -6 -5 -6 6 -1 11 2 17 5 13 3 -3 4 -12 1 -19z
m73 2 c0 -5 -9 -10 -20 -10 -11 0 -20 5 -20 10 0 6 9 10 20 10 11 0 20 -4 20
-10z m66 -15 c10 -26 -6 -38 -27 -19 -15 13 -17 19 -7 26 19 11 28 10 34 -7z
m-93 -46 c5 -4 7 -13 5 -20 -3 -9 -11 -2 -21 18 -19 36 -23 59 -5 28 6 -11 16
-23 21 -26z m-53 -9 c6 -11 8 -20 6 -20 -3 0 -10 9 -16 20 -6 11 -8 20 -6 20
3 0 10 -9 16 -20z m934 -20 c10 -13 9 -13 -6 -1 -10 7 -18 21 -17 30 0 13 1
14 6 1 3 -8 11 -22 17 -30z m150 31 c4 -5 -3 -7 -14 -4 -23 6 -26 13 -6 13 8
0 17 -4 20 -9z m-889 -11 c3 -5 1 -10 -4 -10 -6 0 -11 5 -11 10 0 6 2 10 4 10
3 0 8 -4 11 -10z m1045 -7 c0 -10 -4 -14 -8 -8 -4 6 -11 13 -16 18 -5 4 -2 7
7 7 10 0 17 -8 17 -17z m-520 -18 c14 -16 10 -18 -14 -9 -9 3 -16 10 -16 15 0
14 16 11 30 -6z m-590 -15 c13 -11 21 -23 18 -26 -7 -6 -48 27 -48 38 0 12 5
10 30 -12z m430 10 c0 -5 -2 -10 -4 -10 -3 0 -8 5 -11 10 -3 6 -1 10 4 10 6 0
11 -4 11 -10z m-326 -16 c9 -3 16 -13 16 -20 0 -12 -5 -12 -30 1 -16 9 -30 18
-30 20 0 7 25 6 44 -1z m376 -31 c0 -9 -6 -7 -20 4 -11 10 -20 21 -20 25 0 5
9 3 20 -4 11 -7 20 -18 20 -25z m-140 6 c0 -5 -4 -9 -10 -9 -5 0 -10 7 -10 16
0 8 5 12 10 9 6 -3 10 -10 10 -16z m93 -50 c-3 -12 -9 -17 -15 -11 -10 10 0
44 12 37 5 -3 6 -14 3 -26z m127 11 c0 -5 -4 -10 -10 -10 -5 0 -10 5 -10 10 0
6 5 10 10 10 6 0 10 -4 10 -10z"/>
<path d="M3227 4959 c7 -7 15 -10 18 -7 3 3 -2 9 -12 12 -14 6 -15 5 -6 -5z"/>
<path d="M3204 4872 c5 -8 66 -4 66 4 0 2 -16 4 -36 4 -19 0 -33 -4 -30 -8z"/>
<path d="M1466 4809 c-14 -65 -17 -119 -7 -119 6 0 11 18 11 41 0 22 4 48 9
58 6 10 6 23 1 31 -7 11 -10 8 -14 -11z"/>
<path d="M3286 4785 c4 -8 10 -15 15 -15 5 0 9 7 9 15 0 8 -7 15 -15 15 -9 0
-12 -6 -9 -15z"/>
<path d="M1120 3870 c0 -5 7 -10 15 -10 8 0 15 5 15 10 0 6 -7 10 -15 10 -8 0
-15 -4 -15 -10z"/>
<path d="M1436 3842 c-4 -12 -17 -24 -29 -28 -12 -4 -24 -9 -27 -13 -3 -3 -27
-18 -55 -33 -49 -26 -64 -50 -47 -76 5 -8 36 -14 78 -16 49 -3 58 -2 31 3 -58
12 -56 21 3 14 37 -4 51 -3 46 5 -4 7 5 9 31 6 29 -4 34 -3 23 5 -20 14 -4 14
22 0 15 -8 19 -8 13 0 -5 8 2 10 21 5 16 -4 42 -7 59 -7 16 1 82 -16 145 -37
63 -21 160 -47 214 -58 110 -23 146 -42 78 -42 -23 0 -42 3 -42 8 0 10 -27 12
-212 17 -155 4 -159 3 -245 -27 -89 -30 -123 -51 -123 -73 0 -7 10 -15 22 -19
21 -5 22 -6 5 -18 -30 -22 -11 -50 32 -47 58 3 71 0 71 -17 0 -11 6 -14 21 -9
19 6 21 4 16 -14 -5 -20 5 -34 30 -37 17 -3 43 -30 43 -46 0 -8 3 -9 8 -3 9
14 106 17 139 4 18 -7 30 -6 41 3 10 8 13 9 9 1 -5 -7 0 -9 13 -6 17 4 18 8 8
27 -10 18 -9 19 4 8 15 -12 49 -10 88 6 8 3 51 6 94 7 59 2 82 6 91 18 10 14
15 12 37 -14 26 -29 58 -39 58 -18 0 13 -20 52 -31 59 -5 3 -4 22 2 43 11 40
-6 89 -35 100 -10 4 -13 13 -9 23 5 13 2 16 -10 11 -11 -4 -14 -2 -10 9 3 7
13 14 23 14 11 0 22 5 25 10 3 6 2 10 -3 10 -6 0 -13 16 -17 36 -4 23 -13 38
-25 41 -10 3 -26 21 -35 41 l-16 37 6 -35 c3 -25 2 -31 -5 -20 -9 13 -11 13
-20 0 -7 -11 -10 -11 -10 -2 0 7 -5 10 -11 7 -6 -4 -17 2 -25 14 -9 12 -19 19
-24 16 -5 -3 -29 4 -52 15 -24 12 -61 23 -83 25 -22 2 -54 11 -72 20 -32 16
-192 46 -205 39 -3 -2 -8 1 -10 7 -2 5 -38 13 -80 16 -71 5 -76 4 -82 -15z
m54 -6 c0 -2 -11 -6 -25 -8 -14 -3 -25 -1 -25 3 0 5 11 9 25 9 14 0 25 -2 25
-4z m-40 -86 c0 -5 -8 -10 -17 -10 -15 0 -16 2 -3 10 19 12 20 12 20 0z m-45
-10 c3 -5 1 -10 -4 -10 -6 0 -11 5 -11 10 0 6 2 10 4 10 3 0 8 -4 11 -10z
m-85 -40 c12 -8 11 -10 -7 -10 -12 0 -25 5 -28 10 -8 13 15 13 35 0z m837 -52
c-3 -8 -6 -5 -6 6 -1 11 2 17 5 13 3 -3 4 -12 1 -19z m-20 -80 c-3 -8 -6 -5
-6 6 -1 11 2 17 5 13 3 -3 4 -12 1 -19z m-32 2 c3 -5 1 -10 -4 -10 -6 0 -11 5
-11 10 0 6 2 10 4 10 3 0 8 -4 11 -10z m-308 -80 c-1 -22 -12 -26 -23 -9 -3 6
0 15 7 20 18 12 18 12 16 -11z m-111 -5 c-11 -30 8 -79 46 -117 35 -35 36 -38
16 -38 -53 0 -93 21 -127 65 -33 45 -33 46 -15 66 31 35 91 53 80 24z m319
-41 c12 4 25 -21 25 -51 0 -13 -47 -36 -104 -54 l-29 -9 25 28 c29 31 57 83
59 109 1 12 3 10 6 -5 3 -14 10 -22 18 -18z m-225 -30 c0 -8 -4 -14 -10 -14
-5 0 -10 9 -10 21 0 11 5 17 10 14 6 -3 10 -13 10 -21z m35 -24 c3 -5 1 -10
-4 -10 -6 0 -11 5 -11 10 0 6 2 10 4 10 3 0 8 -4 11 -10z m-15 -64 c0 -3 -4
-8 -10 -11 -5 -3 -10 -1 -10 4 0 6 5 11 10 11 6 0 10 -2 10 -4z m60 0 c0 -9
-40 -13 -46 -5 -3 5 6 9 20 9 14 0 26 -2 26 -4z"/>
<path d="M1548 3693 c7 -3 16 -2 19 1 4 3 -2 6 -13 5 -11 0 -14 -3 -6 -6z"/>
<path d="M3078 3683 c7 -3 16 -2 19 1 4 3 -2 6 -13 5 -11 0 -14 -3 -6 -6z"/>
<path d="M3615 3610 c-9 -15 4 -30 26 -30 24 0 24 12 -1 27 -12 8 -21 9 -25 3z"/>
<path d="M2278 3363 c7 -3 16 -2 19 1 4 3 -2 6 -13 5 -11 0 -14 -3 -6 -6z"/>
<path d="M2880 3351 c0 -5 21 -16 47 -25 55 -19 53 -19 53 -6 0 5 -16 12 -35
16 -19 3 -38 10 -41 15 -7 12 -24 12 -24 0z"/>
<path d="M3178 3323 c7 -3 16 -2 19 1 4 3 -2 6 -13 5 -11 0 -14 -3 -6 -6z"/>
<path d="M1983 3290 c-28 -11 -29 -16 -3 -23 13 -3 24 1 30 14 12 21 7 22 -27
9z"/>
<path d="M2880 3276 c0 -9 5 -16 10 -16 6 0 10 4 10 9 0 6 -4 13 -10 16 -5 3
-10 -1 -10 -9z"/>
<path d="M3315 3250 c-7 -12 2 -30 16 -30 12 0 12 27 0 35 -5 3 -12 1 -16 -5z"/>
<path d="M2904 3225 c-5 -13 0 -24 17 -38 22 -18 24 -18 27 -2 2 10 -5 27 -17
38 -19 20 -21 20 -27 2z"/>
<path d="M2840 3210 c0 -5 5 -10 10 -10 6 0 10 5 10 10 0 6 -4 10 -10 10 -5 0
-10 -4 -10 -10z"/>
<path d="M2995 3210 c-3 -5 -1 -10 4 -10 6 0 11 5 11 10 0 6 -2 10 -4 10 -3 0
-8 -4 -11 -10z"/>
<path d="M2565 3200 c3 -5 13 -10 21 -10 8 0 14 5 14 10 0 6 -9 10 -21 10 -11
0 -17 -4 -14 -10z"/>
<path d="M2050 3109 c0 -24 23 -21 28 4 2 10 -3 17 -12 17 -10 0 -16 -9 -16
-21z"/>
<path d="M1706 2993 c-12 -12 -6 -33 9 -33 8 0 15 6 15 14 0 17 -14 28 -24 19z"/>
<path d="M1260 2646 c0 -2 7 -7 16 -10 8 -3 12 -2 9 4 -6 10 -25 14 -25 6z"/>
<path d="M1165 2570 c-16 -7 -11 -9 20 -9 22 0 47 4 55 9 19 13 -46 13 -75 0z"/>
<path d="M2248 2535 c-12 -14 -28 -25 -35 -25 -24 0 -13 -18 18 -29 44 -15
126 -14 132 2 4 10 7 10 18 0 7 -7 19 -13 27 -13 7 0 -6 20 -29 45 -51 54 -95
61 -131 20z"/>
<path d="M930 2435 c-7 -9 -11 -17 -9 -20 3 -2 10 5 17 15 14 24 10 26 -8 5z"/>
<path d="M1020 1690 c0 -6 23 -32 51 -58 28 -26 90 -85 138 -131 47 -46 124
-109 171 -141 47 -32 107 -79 133 -105 27 -25 51 -44 54 -41 5 5 -48 86 -75
114 -7 8 -10 18 -7 23 4 5 1 9 -5 9 -7 0 -25 9 -40 20 -16 11 -48 27 -72 36
-28 10 -64 37 -106 79 -34 36 -68 65 -75 65 -7 1 -5 6 5 14 15 11 16 18 7 45
-10 29 -14 31 -45 25 -39 -7 -46 7 -11 24 19 9 15 11 -30 11 -28 1 -55 6 -58
11 -8 13 -35 13 -35 0z"/>
<path d="M2700 930 c0 -5 5 -10 10 -10 6 0 10 5 10 10 0 6 -4 10 -10 10 -5 0
-10 -4 -10 -10z"/>
<path d="M2726 681 c-4 -5 -2 -12 3 -15 5 -4 12 -2 15 3 4 5 2 12 -3 15 -5 4
-12 2 -15 -3z"/>
<path d="M3531 334 c0 -11 3 -14 6 -6 3 7 2 16 -1 19 -3 4 -6 -2 -5 -13z"/>
<path d="M3005 190 c3 -5 8 -10 11 -10 2 0 4 5 4 10 0 6 -5 10 -11 10 -5 0 -7
-4 -4 -10z"/>
<path d="M4670 4507 c0 -13 8 -31 18 -40 23 -21 32 -21 32 -2 0 8 -4 15 -10
15 -5 0 -10 11 -10 25 0 16 -6 25 -15 25 -9 0 -15 -9 -15 -23z"/>
<path d="M4545 4500 c3 -5 8 -10 11 -10 2 0 4 5 4 10 0 6 -5 10 -11 10 -5 0
-7 -4 -4 -10z"/>
<path d="M4633 4487 c4 -10 7 -24 7 -30 0 -8 3 -8 11 0 9 9 7 16 -7 30 -17 17
-18 17 -11 0z"/>
<path d="M4565 4361 c-3 -5 -1 -12 5 -16 5 -3 10 1 10 9 0 18 -6 21 -15 7z"/>
<path d="M4557 4243 c-10 -10 -8 -33 3 -33 5 0 7 6 4 14 -4 9 3 16 18 19 20 4
21 4 2 6 -11 0 -24 -2 -27 -6z"/>
<path d="M4700 4191 c0 -5 5 -13 10 -16 6 -3 10 -2 10 4 0 5 -4 13 -10 16 -5
3 -10 2 -10 -4z"/>
<path d="M4607 4123 c-4 -3 -7 -16 -6 -27 0 -19 1 -19 10 3 10 24 8 36 -4 24z"/>
<path d="M4785 4120 c-3 -5 -2 -10 3 -10 5 0 12 -8 16 -17 3 -10 11 -26 18
-35 10 -14 10 -22 0 -38 -10 -17 -10 -20 3 -20 26 0 19 74 -9 105 -15 16 -27
22 -31 15z"/>
<path d="M4695 4090 c-3 -5 1 -10 9 -10 9 0 16 5 16 10 0 6 -4 10 -9 10 -6 0
-13 -4 -16 -10z"/>
<path d="M4332 4079 c2 -6 8 -10 13 -10 5 0 11 4 13 10 2 6 -4 11 -13 11 -9 0
-15 -5 -13 -11z"/>
<path d="M4686 3597 c3 -10 9 -15 12 -12 3 3 0 11 -7 18 -10 9 -11 8 -5 -6z"/>
<path d="M4380 3541 c0 -5 5 -13 10 -16 6 -3 10 -2 10 4 0 5 -4 13 -10 16 -5
3 -10 2 -10 -4z"/>
<path d="M4400 2855 c0 -8 2 -15 4 -15 2 0 11 -3 20 -6 23 -9 20 13 -4 26 -16
9 -20 8 -20 -5z"/>
<path d="M2798 1988 c5 -5 16 -8 23 -6 8 3 3 7 -10 11 -17 4 -21 3 -13 -5z"/>
<path d="M2601 1933 c-1 -12 4 -25 9 -28 12 -7 12 2 0 30 -8 19 -9 19 -9 -2z"/>
<path d="M2511 1923 c0 -5 4 -17 9 -28 8 -18 9 -17 9 8 1 15 -3 27 -9 27 -5 0
-10 -3 -9 -7z"/>
<path d="M2695 1889 c-4 -6 -5 -12 -2 -15 2 -3 7 2 10 11 7 17 1 20 -8 4z"/>
<path d="M3420 6995 c0 -8 5 -15 10 -15 6 0 10 7 10 15 0 8 -4 15 -10 15 -5 0
-10 -7 -10 -15z"/>
<path d="M1420 5861 c0 -5 -10 -11 -22 -13 -19 -3 -17 -5 10 -9 26 -5 32 -2
32 13 0 10 -4 18 -10 18 -5 0 -10 -4 -10 -9z"/>
<path d="M713 5505 c0 -22 2 -30 4 -17 2 12 2 30 0 40 -3 9 -5 -1 -4 -23z"/>
<path d="M1001 5454 c0 -11 3 -14 6 -6 3 7 2 16 -1 19 -3 4 -6 -2 -5 -13z"/>
<path d="M3020 10 c0 -5 5 -10 11 -10 5 0 7 5 4 10 -3 6 -8 10 -11 10 -2 0 -4
-4 -4 -10z"/>
</g>
</svg>
